<svg xmlns="http://www.w3.org/2000/svg" width="160" height="155.141" viewBox="0 0 160 155.141"><g transform="translate(0)"><text transform="translate(3.998 145.141)" fill="#fa3c5e" font-size="29" font-family="Poppins-Bold, Poppins" font-weight="700"><tspan x="0" y="0">ONE</tspan><tspan y="0" fill="#000"> </tspan><tspan y="0" font-family="SegoeUI, Segoe UI" font-weight="400" fill="#000">SPOT</tspan></text><g transform="translate(35.743 35.754)"><path d="M363.181,309.9a37,37,0,1,1,37-37A37.043,37.043,0,0,1,363.181,309.9Zm0-64.95A27.949,27.949,0,1,0,391.13,272.9,27.98,27.98,0,0,0,363.181,244.955Z" transform="translate(-326.18 -235.903)" fill="#fa3c5e"/></g><g transform="translate(57.387 57.399)"><path d="M375.015,300.088a15.349,15.349,0,1,1,15.35-15.349A15.366,15.366,0,0,1,375.015,300.088Zm0-21.647a6.3,6.3,0,1,0,6.3,6.3A6.3,6.3,0,0,0,375.015,278.441Z" transform="translate(-359.666 -269.389)" fill="#fa3c5e"/></g><g transform="translate(0)"><path d="M343.444,189.481a63.833,63.833,0,0,1,63.157,55.5,24.957,24.957,0,0,1,9.148.429,72.727,72.727,0,0,0-145.024,6.49,5.769,5.769,0,0,0,1.659,4.176,5.847,5.847,0,0,0,4.152,1.746h56.105v-9.052H279.9a63.755,63.755,0,0,1,63.54-59.292Z" transform="translate(-270.724 -180.429)" fill="#f43b61"/></g><g transform="translate(118.549 68.829)"><path d="M475.219,328.577a20.726,20.726,0,1,1,20.725-20.726A20.749,20.749,0,0,1,475.219,328.577Zm0-31.753a11.027,11.027,0,1,0,11.026,11.027A11.04,11.04,0,0,0,475.219,296.824Z" transform="translate(-454.493 -287.125)" fill="#fa3c5e"/></g></g></svg>