<?xml version="1.0" encoding="utf-8"?>
<!-- Generator: Adobe Illustrator 25.2.0, SVG Export Plug-In . SVG Version: 6.00 Build 0)  -->
<svg version="1.1" id="Layer_1" xmlns="http://www.w3.org/2000/svg" xmlns:xlink="http://www.w3.org/1999/xlink" x="0px" y="0px"
	 viewBox="0 0 350 350" style="enable-background:new 0 0 350 350;" xml:space="preserve">
<style type="text/css">
	.st0{fill:#FA3C5E;}
	.st1{fill:url(#SVGID_1_);}
	.st2{fill:url(#SVGID_2_);}
</style>
<g>
	<g>
		<path class="st0" d="M29.13,328.89c-3.72-2.07-6.68-4.97-8.87-8.7c-2.19-3.72-3.28-7.91-3.28-12.55c0-4.65,1.09-8.82,3.28-12.52
			c2.19-3.7,5.14-6.59,8.87-8.66c3.72-2.07,7.82-3.11,12.28-3.11c4.47,0,8.56,1.04,12.28,3.11c3.72,2.08,6.65,4.96,8.8,8.66
			c2.14,3.7,3.21,7.87,3.21,12.52c0,4.65-1.08,8.83-3.25,12.55c-2.17,3.72-5.1,6.62-8.8,8.7c-3.7,2.08-7.78,3.11-12.25,3.11
			C36.95,332,32.85,330.96,29.13,328.89z M50.52,317.65c2.28-2.53,3.42-5.86,3.42-10.02c0-4.2-1.14-7.54-3.42-10.05
			c-2.28-2.5-5.31-3.76-9.1-3.76c-3.84,0-6.89,1.24-9.17,3.72c-2.28,2.48-3.42,5.84-3.42,10.08c0,4.2,1.14,7.55,3.42,10.05
			c2.28,2.5,5.33,3.76,9.17,3.76C45.2,321.44,48.24,320.18,50.52,317.65z"/>
		<path class="st0" d="M114.64,331.53h-11.57l-19.35-29.3v29.3H72.14v-47.51h11.57l19.35,29.44v-29.44h11.57V331.53z"/>
		<path class="st0" d="M134.6,293.29v9.61h15.5v8.93h-15.5v10.42h17.53v9.27h-29.1v-47.51h29.1v9.27H134.6z"/>
		<path d="M181.33,330.38c-2.37-1.08-4.23-2.59-5.58-4.53c-1.35-1.94-2.08-4.11-2.17-6.5h5.01c0.23,2.3,1.24,4.32,3.05,6.06
			c1.8,1.74,4.44,2.61,7.92,2.61c3.2,0,5.74-0.82,7.61-2.47c1.87-1.65,2.81-3.73,2.81-6.26c0-2.03-0.52-3.66-1.56-4.91
			c-1.04-1.24-2.32-2.17-3.86-2.77c-1.53-0.61-3.65-1.28-6.36-2c-3.16-0.86-5.66-1.69-7.51-2.5c-1.85-0.81-3.43-2.07-4.74-3.79
			c-1.31-1.71-1.96-4.04-1.96-6.97c0-2.44,0.63-4.61,1.89-6.53c1.26-1.92,3.05-3.42,5.35-4.5c2.3-1.08,4.94-1.62,7.92-1.62
			c4.38,0,7.91,1.07,10.59,3.21c2.68,2.14,4.23,4.91,4.64,8.29h-5.14c-0.32-1.94-1.38-3.67-3.18-5.18c-1.8-1.51-4.24-2.27-7.31-2.27
			c-2.84,0-5.21,0.76-7.1,2.27c-1.9,1.51-2.84,3.58-2.84,6.19c0,1.99,0.52,3.59,1.56,4.81c1.04,1.22,2.34,2.14,3.89,2.77
			c1.56,0.63,3.66,1.31,6.33,2.03c3.07,0.86,5.55,1.7,7.44,2.54c1.9,0.84,3.5,2.11,4.81,3.82c1.31,1.72,1.96,4.02,1.96,6.9
			c0,2.21-0.59,4.31-1.76,6.29c-1.17,1.99-2.91,3.59-5.21,4.81s-5.05,1.83-8.26,1.83C186.44,332,183.7,331.46,181.33,330.38z"/>
		<path d="M240.17,307.64c-2.66,2.48-6.66,3.72-11.98,3.72h-9.54v20.17h-4.74v-47.3h14.28c5.28,0,9.26,1.24,11.94,3.72
			c2.68,2.48,4.03,5.78,4.03,9.88C244.16,301.89,242.83,305.16,240.17,307.64z M239.29,297.82c0-3.16-0.88-5.55-2.64-7.17
			c-1.76-1.62-4.58-2.44-8.46-2.44h-9.54v19.08h9.54C235.59,307.3,239.29,304.14,239.29,297.82z"/>
		<path d="M261.42,328.92c-3.56-2.05-6.37-4.92-8.43-8.59c-2.05-3.68-3.08-7.84-3.08-12.49c0-4.65,1.03-8.81,3.08-12.49
			s4.86-6.54,8.43-8.59c3.56-2.05,7.53-3.08,11.91-3.08c4.42,0,8.41,1.03,11.98,3.08c3.56,2.05,6.36,4.92,8.39,8.59
			c2.03,3.68,3.05,7.84,3.05,12.49c0,4.65-1.02,8.81-3.05,12.49c-2.03,3.68-4.83,6.54-8.39,8.59c-3.56,2.05-7.56,3.08-11.98,3.08
			C268.95,332,264.98,330.97,261.42,328.92z M282.8,325.43c2.8-1.62,5.01-3.96,6.63-7c1.62-3.05,2.44-6.58,2.44-10.59
			c0-4.01-0.81-7.53-2.44-10.56c-1.62-3.02-3.83-5.35-6.63-6.97c-2.8-1.62-5.95-2.44-9.47-2.44c-3.52,0-6.68,0.81-9.47,2.44
			c-2.8,1.62-5.01,3.95-6.63,6.97c-1.62,3.02-2.44,6.54-2.44,10.56c0,4.02,0.81,7.55,2.44,10.59c1.62,3.05,3.83,5.38,6.63,7
			c2.8,1.62,5.95,2.44,9.47,2.44C276.85,327.87,280,327.06,282.8,325.43z"/>
		<path d="M333.08,284.22v3.93h-13.13v43.38h-4.74v-43.38h-13.2v-3.93H333.08z"/>
	</g>
</g>
<g>
	<linearGradient id="SVGID_1_" gradientUnits="userSpaceOnUse" x1="252.965" y1="196.5593" x2="333.0157" y2="196.5593">
		<stop  offset="0.1174" style="stop-color:#FA3C5E"/>
		<stop  offset="0.6719" style="stop-color:#FA3C5E"/>
	</linearGradient>
	<path class="st1" d="M292.99,156.53c-22.07,0-40.02,17.96-40.02,40.03s17.96,40.03,40.02,40.03c22.07,0,40.03-17.96,40.03-40.03
		S315.06,156.53,292.99,156.53z"/>
	<linearGradient id="SVGID_2_" gradientUnits="userSpaceOnUse" x1="16.9162" y1="127.8928" x2="302.221" y2="127.8928">
		<stop  offset="0.1174" style="stop-color:#FA3C5E"/>
		<stop  offset="0.6719" style="stop-color:#FA3C5E"/>
	</linearGradient>
	<path class="st2" d="M159.95,19C81.08,19,16.92,83.17,16.92,162.04v9.3l71.3,0.77c4.39,36.38,35.42,64.67,72.97,64.67
		c40.54,0,73.52-32.98,73.52-73.52c0-40.54-32.98-73.52-73.52-73.52c-37.16,0-67.95,27.72-72.82,63.56l-52.29-0.57
		C40.84,88.56,94.58,37.81,159.95,37.81c63.5,0,116.01,47.89,123.35,109.45c3.14-0.62,6.38-0.95,9.69-0.95
		c3.15,0,6.24,0.31,9.23,0.86C294.76,75.26,233.81,19,159.95,19z M161.18,108.56c30.17,0,54.71,24.54,54.71,54.71
		s-24.54,54.71-54.71,54.71c-27.08,0-49.62-19.78-53.95-45.65l24.33,0.26c3.97,12.58,15.74,21.73,29.61,21.73
		c17.12,0,31.05-13.93,31.05-31.04s-13.93-31.04-31.05-31.04c-13.81,0-25.53,9.06-29.56,21.55l-24.26-0.26
		C111.98,127.99,134.35,108.56,161.18,108.56z M148.95,163.27c0-6.75,5.49-12.24,12.24-12.24c6.75,0,12.24,5.49,12.24,12.24
		s-5.49,12.24-12.24,12.24C154.44,175.5,148.95,170.01,148.95,163.27z"/>
</g>
</svg>
